<svg width="71" height="72" viewBox="0 0 71 72" fill="none" xmlns="http://www.w3.org/2000/svg">
  <g clip-path="url(#clip0_9545_698)">
    <path d="M71 0H0V72H71V0Z" fill="#FF0000"/>
    <path d="M3.34636 56.0994H0V53.5365H3.34636V56.0994ZM3.25619 68.1341H0V57.6006H3.25619V68.1341Z" fill="white"/>
    <path d="M15.4669 68.1341H12.2107V62.9092C12.2107 62.4851 12.1932 62.0609 12.1581 61.6392C12.1477 61.3192 12.0842 61.0032 11.9703 60.7045C11.8716 60.4846 11.702 60.3054 11.4893 60.1965C11.2229 60.0817 10.9345 60.0287 10.6452 60.0415C10.3707 60.0439 10.0986 60.0946 9.84121 60.1914C9.53225 60.3116 9.24006 60.4721 8.97206 60.6689V68.1366H5.7334V57.6006H8.97206V58.7639C9.44512 58.3467 9.96462 57.987 10.52 57.692C11.0387 57.4333 11.6102 57.3019 12.1882 57.3085C13.2502 57.3085 14.0617 57.6471 14.6228 58.3245C15.1839 59.0018 15.4644 59.9848 15.4644 61.2735L15.4669 68.1341Z" fill="white"/>
    <path d="M23.1815 68.416C21.2211 68.416 19.7183 67.941 18.673 66.991C17.6276 66.041 17.105 64.6863 17.105 62.9269C17.105 61.2065 17.5926 59.834 18.5678 58.8095C19.5429 57.785 20.9064 57.272 22.658 57.2703C24.2477 57.2703 25.4442 57.7055 26.2474 58.5758C27.0506 59.4462 27.4513 60.6908 27.4497 62.3097V63.501H20.3512C20.3656 63.9265 20.4698 64.344 20.6567 64.7253C20.8173 65.0394 21.0523 65.3082 21.3405 65.5076C21.6344 65.7103 21.9646 65.8527 22.3124 65.9267C22.7107 66.0139 23.1172 66.0565 23.5247 66.0537C23.8981 66.0536 24.2703 66.011 24.6343 65.9267C24.9782 65.8494 25.3138 65.7379 25.6362 65.594C25.8884 65.4807 26.1335 65.3518 26.3701 65.2079C26.5955 65.0707 26.7809 64.9539 26.9211 64.8421H27.2643V67.5549C26.9988 67.6616 26.7633 67.7581 26.5379 67.8495C26.2442 67.9634 25.9429 68.0559 25.6362 68.1264C25.2772 68.2147 24.9134 68.2817 24.5466 68.327C24.0941 68.3882 23.638 68.4179 23.1815 68.416ZM24.2536 61.5121C24.2767 60.9444 24.1089 60.3855 23.7777 59.9271C23.4788 59.5631 23.0212 59.381 22.4051 59.381C22.1338 59.3639 21.8621 59.4052 21.6077 59.5024C21.3534 59.5996 21.1223 59.7505 20.9298 59.9449C20.555 60.3751 20.346 60.928 20.3411 61.502L24.2536 61.5121Z" fill="white"/>
    <path d="M39.2972 62.7212C39.2972 64.4044 38.8798 65.7591 38.0448 66.7853C37.679 67.2697 37.2076 67.6617 36.6674 67.9305C36.1273 68.1993 35.5331 68.3377 34.9314 68.3347C34.4751 68.3429 34.02 68.2821 33.5814 68.1544C33.1544 68.0176 32.7443 67.8319 32.359 67.6006V71.9924H29.1104V57.6005H32.349V58.6978C32.7927 58.303 33.2803 57.9621 33.8018 57.6817C34.3339 57.418 34.9203 57.2866 35.5125 57.2982C36.0625 57.2766 36.6087 57.3992 37.0984 57.6542C37.5881 57.9091 38.0046 58.2878 38.3078 58.7536C38.9674 59.729 39.2972 61.0515 39.2972 62.7212ZM35.9859 62.7872C35.9859 61.7712 35.8281 61.0092 35.5175 60.5545C35.3538 60.3216 35.1337 60.1355 34.8783 60.014C34.623 59.8925 34.341 59.8399 34.0598 59.8611C33.7663 59.8615 33.4747 59.9087 33.1956 60.0008C32.8957 60.1013 32.6108 60.2432 32.349 60.4225V65.7235C32.5307 65.8021 32.7219 65.8559 32.9176 65.8836C33.1616 65.9173 33.4077 65.9335 33.654 65.9318C34.443 65.9318 35.0291 65.6778 35.4073 65.1469C35.7855 64.6161 35.9859 63.8388 35.9859 62.7872Z" fill="white"/>
    <path d="M48.0113 60.707H47.7433C47.5688 60.654 47.389 60.6207 47.2073 60.6079C46.9718 60.5876 46.7063 60.5775 46.4308 60.5775C46.0693 60.5795 45.7097 60.6299 45.3612 60.7273C44.9926 60.8252 44.6297 60.9439 44.2742 61.0829V68.1366H41.0355V57.6005H44.2742V59.1093C44.422 58.9722 44.6273 58.7994 44.8903 58.5886C45.1164 58.4016 45.3559 58.2318 45.6067 58.0806C45.8647 57.9252 46.1395 57.8008 46.4258 57.7098C46.7096 57.6106 47.0073 57.5583 47.3074 57.5548C47.4126 57.5548 47.5304 57.5548 47.6606 57.5548C47.7909 57.5548 47.9111 57.57 48.0113 57.5828V60.707Z" fill="white"/>
    <path d="M59.2226 62.8711C59.2226 64.6034 58.7559 65.9682 57.8224 66.9656C56.889 67.963 55.5656 68.4625 53.8524 68.4642C52.1558 68.4642 50.8375 67.9647 49.8974 66.9656C48.9572 65.9665 48.4872 64.6017 48.4872 62.8711C48.4872 61.1201 48.9572 59.7493 49.8974 58.7587C50.8375 57.7681 52.1558 57.272 53.8524 57.2703C55.5556 57.2703 56.8756 57.769 57.8124 58.7663C58.7492 59.7637 59.2193 61.132 59.2226 62.8711ZM55.9013 62.8914C55.9114 62.3665 55.861 61.8422 55.751 61.3292C55.6735 60.972 55.5308 60.6325 55.3302 60.3285C55.1659 60.0903 54.942 59.9009 54.6815 59.7798C54.4196 59.6733 54.1395 59.6207 53.8574 59.6249C53.5892 59.6213 53.3225 59.6678 53.0709 59.762C52.8129 59.8729 52.5895 60.0529 52.4247 60.2828C52.2133 60.5844 52.0627 60.9253 51.9813 61.2861C51.858 61.8117 51.8016 62.3512 51.8135 62.8914C51.8009 63.4168 51.8539 63.9416 51.9713 64.4535C52.0516 64.7923 52.1888 65.1145 52.3771 65.406C52.5406 65.6412 52.7651 65.8258 53.0258 65.9394C53.298 66.0538 53.5903 66.1109 53.8849 66.1071C54.1571 66.1045 54.4261 66.0476 54.6764 65.9394C54.9339 65.8349 55.157 65.6588 55.3202 65.4314C55.5222 65.1368 55.669 64.807 55.7535 64.4586C55.8667 63.9444 55.9163 63.418 55.9013 62.8914Z" fill="white"/>
    <path d="M63.9015 56.2593C63.9015 56.8893 63.6861 57.4998 63.292 57.9868C62.898 58.4737 62.3496 58.8071 61.7403 58.93C61.131 59.0529 60.4986 58.9578 59.9507 58.6609C59.4028 58.3639 58.9734 57.8835 58.7357 57.3015C58.4979 56.7195 58.4665 56.0719 58.6468 55.4691C58.8272 54.8662 59.208 54.3454 59.7245 53.9954C60.241 53.6454 60.8613 53.4879 61.4795 53.5496C62.0977 53.6113 62.6757 53.8885 63.115 54.334C63.3688 54.5834 63.5695 54.8829 63.7048 55.2141C63.8401 55.5452 63.907 55.901 63.9015 56.2593ZM63.3078 56.2593C63.3119 55.979 63.2598 55.7007 63.1548 55.4414C63.0497 55.1821 62.8939 54.947 62.6967 54.7505C62.5035 54.5517 62.2732 54.3938 62.0193 54.2861C61.7654 54.1783 61.4929 54.1228 61.2176 54.1228C60.9423 54.1228 60.6698 54.1783 60.4159 54.2861C60.162 54.3938 59.9317 54.5517 59.7385 54.7505C59.3471 55.1519 59.1276 55.6936 59.1276 56.2581C59.1276 56.8225 59.3471 57.3642 59.7385 57.7656C59.9314 57.965 60.1615 58.1235 60.4155 58.2316C60.6695 58.3398 60.9422 58.3955 61.2176 58.3955C61.4931 58.3955 61.7658 58.3398 62.0197 58.2316C62.2737 58.1235 62.5038 57.965 62.6967 57.7656C62.8938 57.5696 63.0496 57.335 63.1547 57.0761C63.2597 56.8171 63.3118 56.5393 63.3078 56.2593ZM62.6691 57.5471H61.8676L61.0886 56.554H60.8381V57.5471H60.2069V54.8394H61.1813C61.3261 54.8376 61.4708 54.8452 61.6146 54.8623C61.7292 54.8783 61.8397 54.9162 61.9402 54.9741C62.0446 55.0346 62.1311 55.1223 62.1907 55.2281C62.2546 55.3656 62.281 55.5179 62.2674 55.6693C62.2537 55.8207 62.2005 55.9656 62.1131 56.0892C61.9999 56.2176 61.8594 56.3184 61.7023 56.3838L62.6691 57.5471ZM61.5645 55.6446C61.566 55.5908 61.5539 55.5375 61.5295 55.4897C61.5052 55.4402 61.4656 55.4 61.4167 55.3754C61.3665 55.3468 61.3112 55.3286 61.2539 55.3221C61.1785 55.3108 61.1023 55.3057 61.026 55.3068H60.8256V56.0688H60.9784C61.0667 56.0687 61.1547 56.0602 61.2414 56.0434C61.3105 56.0342 61.376 56.0071 61.4318 55.9647C61.477 55.9325 61.5119 55.8874 61.532 55.8351C61.5551 55.7744 61.5662 55.7097 61.5645 55.6446Z" fill="white"/>
  </g>
  <defs>
    <clipPath id="clip0_9545_698">
      <rect width="71" height="72" fill="white"/>
    </clipPath>
  </defs>
</svg>